<svg xmlns="http://www.w3.org/2000/svg" xmlns:xlink="http://www.w3.org/1999/xlink" width="250" zoomAndPan="magnify" viewBox="0 0 187.5 187.499992" height="250" preserveAspectRatio="xMidYMid meet" version="1.0"><defs><clipPath id="fc71158bd5"><path d="M 1.539062 14.910156 L 185.546875 14.910156 L 185.546875 128 L 1.539062 128 Z M 1.539062 14.910156 " clip-rule="nonzero"/></clipPath><clipPath id="7ec320011f"><path d="M 74 117 L 152 117 L 152 171.988281 L 74 171.988281 Z M 74 117 " clip-rule="nonzero"/></clipPath></defs><path fill="#ffffff" d="M 97.957031 97.035156 L 80.601562 106.964844 L 63.539062 116.875 L 46.207031 126.804688 L 46.207031 146.648438 L 63.539062 136.714844 L 80.601562 126.804688 L 97.957031 116.875 L 115.015625 106.964844 Z M 97.957031 97.035156 " fill-opacity="1" fill-rule="evenodd"/><g clip-path="url(#fc71158bd5)"><path fill="#ffffff" d="M 167.308594 57.625 L 127.945312 35.023438 L 110.886719 25.113281 L 93.554688 14.910156 L 76.472656 25.113281 L 59.140625 35.023438 L 1.597656 68.105469 L 1.597656 87.945312 L 59.140625 54.863281 L 76.472656 44.953125 L 93.554688 35.023438 L 110.886719 44.953125 L 127.945312 54.863281 L 167.308594 77.46875 L 167.308594 97.308594 L 127.945312 74.726562 L 110.886719 64.796875 L 93.554688 54.863281 L 76.472656 64.796875 L 59.140625 74.726562 L 1.597656 108.0625 L 1.597656 127.902344 L 59.140625 94.542969 L 76.472656 84.636719 L 93.554688 74.726562 L 110.886719 84.636719 L 127.945312 94.542969 L 185.488281 127.902344 L 185.488281 68.105469 Z M 167.308594 57.625 " fill-opacity="1" fill-rule="evenodd"/></g><g clip-path="url(#7ec320011f)"><path fill="#ffffff" d="M 133.738281 117.695312 L 116.679688 127.902344 L 99.324219 137.8125 L 74.554688 152.148438 L 74.554688 171.988281 L 99.324219 157.675781 L 116.679688 147.742188 L 133.738281 137.8125 L 151.070312 127.902344 Z M 133.738281 117.695312 " fill-opacity="1" fill-rule="evenodd"/></g></svg>